<mxfile host="app.diagrams.net" modified="2023-10-15T16:32:42.119Z" agent="Mozilla/5.0 (Windows NT 10.0; Win64; x64) AppleWebKit/537.36 (KHTML, like Gecko) Chrome/118.0.0.0 Safari/537.36" etag="0Jrb39dm1F6RMfTVYtQR" version="22.0.4" type="github">
  <diagram name="Page-1" id="VbT2AXL3NxatUCNaOw7W">
    <mxGraphModel dx="1900" dy="587" grid="1" gridSize="10" guides="1" tooltips="1" connect="1" arrows="1" fold="1" page="1" pageScale="1" pageWidth="850" pageHeight="1100" math="0" shadow="0">
      <root>
        <mxCell id="0" />
        <mxCell id="1" parent="0" />
        <mxCell id="9EdJ5cW4g2u-1m6N94yv-3" value="" style="edgeStyle=orthogonalEdgeStyle;rounded=0;orthogonalLoop=1;jettySize=auto;html=1;" parent="1" source="9EdJ5cW4g2u-1m6N94yv-1" target="9EdJ5cW4g2u-1m6N94yv-2" edge="1">
          <mxGeometry relative="1" as="geometry" />
        </mxCell>
        <mxCell id="9EdJ5cW4g2u-1m6N94yv-1" value="START" style="ellipse;whiteSpace=wrap;html=1;" parent="1" vertex="1">
          <mxGeometry x="370" y="130" width="120" height="80" as="geometry" />
        </mxCell>
        <mxCell id="3hjuimiY7uAzhOEAK05u-10" value="" style="edgeStyle=orthogonalEdgeStyle;rounded=0;orthogonalLoop=1;jettySize=auto;html=1;entryX=0.5;entryY=0;entryDx=0;entryDy=0;" parent="1" source="9EdJ5cW4g2u-1m6N94yv-2" target="U0qqM5ackRJWeSOB-rKI-1" edge="1">
          <mxGeometry relative="1" as="geometry">
            <mxPoint x="430" y="400" as="targetPoint" />
            <Array as="points">
              <mxPoint x="430" y="365" />
              <mxPoint x="431" y="365" />
              <mxPoint x="431" y="420" />
            </Array>
          </mxGeometry>
        </mxCell>
        <mxCell id="9EdJ5cW4g2u-1m6N94yv-2" value="Start Screen / Login/ Title GUI page" style="shape=process;whiteSpace=wrap;html=1;backgroundOutline=1;fillColor=#FFFFFF;" parent="1" vertex="1">
          <mxGeometry x="370" y="270" width="120" height="60" as="geometry" />
        </mxCell>
        <mxCell id="3hjuimiY7uAzhOEAK05u-9" value="1. View Current Ads for Cars&lt;br&gt;2. Put up car for sale&lt;br&gt;3. AI Car Sale Recommender&lt;br&gt;5. Search.&lt;br&gt;6. Seller Profile Page" style="rhombus;whiteSpace=wrap;html=1;fillColor=#FFFFFF;" parent="1" vertex="1">
          <mxGeometry x="550" y="650" width="380" height="270" as="geometry" />
        </mxCell>
        <mxCell id="U0qqM5ackRJWeSOB-rKI-2" style="edgeStyle=orthogonalEdgeStyle;rounded=0;orthogonalLoop=1;jettySize=auto;html=1;exitX=0;exitY=0.5;exitDx=0;exitDy=0;entryX=0.5;entryY=0;entryDx=0;entryDy=0;" edge="1" parent="1" source="U0qqM5ackRJWeSOB-rKI-1" target="U0qqM5ackRJWeSOB-rKI-6">
          <mxGeometry relative="1" as="geometry">
            <mxPoint x="80" y="640" as="targetPoint" />
            <Array as="points">
              <mxPoint x="81" y="440" />
            </Array>
          </mxGeometry>
        </mxCell>
        <mxCell id="U0qqM5ackRJWeSOB-rKI-4" style="edgeStyle=orthogonalEdgeStyle;rounded=0;orthogonalLoop=1;jettySize=auto;html=1;exitX=1;exitY=0.5;exitDx=0;exitDy=0;entryX=0.5;entryY=0;entryDx=0;entryDy=0;" edge="1" parent="1" source="U0qqM5ackRJWeSOB-rKI-1" target="3hjuimiY7uAzhOEAK05u-9">
          <mxGeometry relative="1" as="geometry">
            <mxPoint x="740" y="640" as="targetPoint" />
          </mxGeometry>
        </mxCell>
        <mxCell id="U0qqM5ackRJWeSOB-rKI-1" value="Login / Register" style="rhombus;whiteSpace=wrap;html=1;" vertex="1" parent="1">
          <mxGeometry x="390" y="400" width="80" height="80" as="geometry" />
        </mxCell>
        <mxCell id="U0qqM5ackRJWeSOB-rKI-3" value="As Buyer" style="text;html=1;align=center;verticalAlign=middle;resizable=0;points=[];autosize=1;strokeColor=none;fillColor=none;" vertex="1" parent="1">
          <mxGeometry x="200" y="408" width="70" height="30" as="geometry" />
        </mxCell>
        <mxCell id="U0qqM5ackRJWeSOB-rKI-5" value="As Seller" style="text;html=1;align=center;verticalAlign=middle;resizable=0;points=[];autosize=1;strokeColor=none;fillColor=none;" vertex="1" parent="1">
          <mxGeometry x="535" y="408" width="70" height="30" as="geometry" />
        </mxCell>
        <mxCell id="U0qqM5ackRJWeSOB-rKI-6" value="1. View Current Ads for Cars&lt;br&gt;3. Car Buying Advice System&lt;br&gt;4. View Your Profile / Cars you have sold&lt;br&gt;5. Search for specific Cars/ models etc.&lt;br&gt;6.Buyer Account Page" style="rhombus;whiteSpace=wrap;html=1;fillColor=#FFFFFF;" vertex="1" parent="1">
          <mxGeometry x="-110" y="650" width="380" height="270" as="geometry" />
        </mxCell>
      </root>
    </mxGraphModel>
  </diagram>
</mxfile>
